<?xml version="1.0" encoding="UTF-8" standalone="no"?>
<!-- Created with Inkscape (http://www.inkscape.org/) -->

<svg
   xmlns:dc="http://purl.org/dc/elements/1.1/"
   xmlns:cc="http://creativecommons.org/ns#"
   xmlns:rdf="http://www.w3.org/1999/02/22-rdf-syntax-ns#"
   xmlns:svg="http://www.w3.org/2000/svg"
   xmlns="http://www.w3.org/2000/svg"
   xmlns:sodipodi="http://sodipodi.sourceforge.net/DTD/sodipodi-0.dtd"
   xmlns:inkscape="http://www.inkscape.org/namespaces/inkscape"
   width="301.42856"
   height="432.85715"
   id="svg2"
   version="1.1"
   inkscape:version="0.48.4 r9939"
   sodipodi:docname="mic-talk.svg"
   inkscape:export-filename="C:\a\workspace\webriffs\client\web\img\mic-talk-16x30.png"
   inkscape:export-xdpi="7.0880342"
   inkscape:export-ydpi="7.0880342">
  <defs
     id="defs4" />
  <sodipodi:namedview
     id="base"
     pagecolor="#ffffff"
     bordercolor="#666666"
     borderopacity="1.0"
     inkscape:pageopacity="0.0"
     inkscape:pageshadow="2"
     inkscape:zoom="0.7"
     inkscape:cx="12.676524"
     inkscape:cy="266.65079"
     inkscape:document-units="px"
     inkscape:current-layer="layer1"
     showgrid="false"
     fit-margin-top="0"
     fit-margin-left="0"
     fit-margin-right="0"
     fit-margin-bottom="0"
     inkscape:window-width="1131"
     inkscape:window-height="750"
     inkscape:window-x="22"
     inkscape:window-y="22"
     inkscape:window-maximized="0" />
  <metadata
     id="metadata7">
    <rdf:RDF>
      <cc:Work
         rdf:about="">
        <dc:format>image/svg+xml</dc:format>
        <dc:type
           rdf:resource="http://purl.org/dc/dcmitype/StillImage" />
        <dc:title></dc:title>
      </cc:Work>
    </rdf:RDF>
  </metadata>
  <g
     inkscape:label="Layer 1"
     inkscape:groupmode="layer"
     id="layer1"
     transform="translate(103.39081,-880.44153)">
    <path
       style="fill:#000000;fill-opacity:1;stroke:none"
       d="m 0,932.375 c -38.78,0 -70,28.04752 -70,62.90625 l 0,18.09375 140,0 0,-18.09375 C 70,960.42252 38.78,932.375 0,932.375 z m -70,99 0,12 139.28125,0 0,18 -139.28125,0 0,12.8438 140,0 0,-42.8438 -140,0 z m 0,60 0,18.0625 c 0,34.8587 31.22,62.9375 70,62.9375 38.78,0 70,-28.0788 70,-62.9375 l 0,-18.0625 -140,0 z"
       id="rect2985"
       inkscape:connector-curvature="0" />
    <path
       style="fill:none;stroke:#000000;stroke-width:14;stroke-linecap:butt;stroke-linejoin:miter;stroke-miterlimit:4;stroke-opacity:1;stroke-dasharray:none"
       d="m -95,1052.3622 c 0,0 -11.3864,92.0506 31,120 33.393644,22.0196 95.170289,22.8519 128,0 38.10068,-26.5209 31,-120 31,-120"
       id="path2987"
       inkscape:connector-curvature="0"
       sodipodi:nodetypes="cssc" />
    <path
       style="fill:none;stroke:#000000;stroke-width:14;stroke-linecap:butt;stroke-linejoin:miter;stroke-miterlimit:4;stroke-opacity:1;stroke-dasharray:none"
       d="m 0,1192.6482 0,112.5711"
       id="path2989"
       inkscape:connector-curvature="0"
       sodipodi:nodetypes="cc" />
    <path
       style="fill:none;stroke:#000000;stroke-width:13.3029604;stroke-linecap:butt;stroke-linejoin:miter;stroke-miterlimit:4;stroke-opacity:1;stroke-dasharray:none"
       d="m -53.679688,1306.6472 107.359376,0"
       id="path2991"
       inkscape:connector-curvature="0" />
    <rect
       style="fill:#000000;fill-opacity:1;stroke:none"
       id="rect3863"
       width="112.85714"
       height="102.85714"
       x="188.57143"
       y="-51.933468"
       transform="translate(-103.39081,932.375)"
       rx="0"
       ry="0" />
    <path
       style="fill:#000000;fill-opacity:1;stroke:#000000;stroke-width:1px;stroke-linecap:butt;stroke-linejoin:miter;stroke-opacity:1"
       d="m 267.14286,39.495104 -58.57143,50 25.71428,-47.142857 z"
       id="path3865"
       inkscape:connector-curvature="0"
       transform="translate(-103.39081,932.375)"
       sodipodi:nodetypes="cccc" />
  </g>
</svg>
