<?xml version="1.0" encoding="UTF-8" standalone="no"?><svg xmlns="http://www.w3.org/2000/svg" version="1.1" fit="" preserveAspectRatio="xMidYMid meet" width="100%" height="100%" style="pointer-events: none; display: block;" viewBox="0 0 24 24"><g><path d="M12,2C6.5,2,2,6.5,2,12c0,5.5,4.5,10,10,10c5.5,0,10-4.5,10-10C22,6.5,17.5,2,12,2z M16.5,16c0,0-8.5,0-8.5,0c-1.7,0-3-1.3-3-3s1.3-3,3-3c0,0,0.1,0,0.1,0c0.4-1.7,2-3,3.9-3c2.2,0,4,1.8,4,4h0.5c1.4,0,2.5,1.1,2.5,2.5C19,14.9,17.9,16,16.5,16z"></path></g></svg>